<!DOCTYPE svg PUBLIC "-//W3C//DTD SVG 20010904//EN" "http://www.w3.org/TR/2001/REC-SVG-20010904/DTD/svg10.dtd">
<svg version="1.0" xmlns="http://www.w3.org/2000/svg" width="1144px" height="870px" viewBox="0 0 11440 8700" preserveAspectRatio="xMidYMid meet">
<g id="layer101" fill="#000000" stroke="none">
</g>
<g id="layer102" fill="#ffffff" stroke="none">
<path d="M9722 8683 c-39 -19 -70 -59 -78 -102 l-6 -31 -4819 0 c-4277 0 -4819 -2 -4819 -15 0 -13 542 -15 4820 -15 l4820 0 6 -27 c34 -136 134 -232 318 -303 49 -18 177 -57 285 -84 l196 -51 22 -45 c40 -80 115 -280 105 -280 -4 0 -20 21 -36 46 -47 74 -135 163 -187 190 -63 31 -149 33 -197 4 -71 -44 -82 -149 -28 -273 20 -44 30 -80 24 -83 -12 -8 -10 -10 -48 66 -74 147 -159 253 -236 293 -76 39 -155 33 -211 -16 -50 -44 -63 -81 -63 -184 l0 -88 -28 50 c-131 237 -299 327 -419 222 -50 -44 -63 -81 -63 -184 l0 -88 -29 52 c-106 192 -217 269 -380 262 -66 -3 -84 -8 -119 -33 -87 -60 -116 -153 -89 -286 52 -266 284 -521 477 -523 186 -1 199 179 24 343 -70 65 -142 103 -245 129 -38 10 -75 23 -81 29 -13 13 -24 159 -14 197 11 42 41 65 86 65 113 0 212 -92 313 -290 55 -108 64 -119 90 -129 14 -5 34 -48 69 -142 72 -192 71 -179 5 -179 -47 0 -57 -3 -62 -20 -3 -10 -1 -28 5 -40 9 -17 20 -20 84 -20 l73 0 18 -42 c38 -88 152 -291 193 -344 95 -122 212 -151 257 -64 33 63 8 175 -76 342 -27 54 -49 100 -49 103 0 3 38 5 83 5 l84 0 18 -42 c38 -88 152 -291 193 -344 95 -122 212 -151 257 -64 33 63 8 175 -76 342 -27 54 -49 100 -49 102 0 3 24 6 53 8 46 3 52 6 55 26 6 40 -14 52 -88 52 l-67 0 -38 58 c-59 89 -124 171 -196 247 l-67 70 -26 117 c-30 136 -32 175 -10 207 14 19 23 22 50 18 19 -3 48 -16 65 -28 43 -30 136 -158 187 -257 46 -88 77 -119 99 -100 7 6 15 9 17 7 2 -2 38 -73 81 -157 90 -179 94 -182 225 -182 99 0 109 13 51 65 -30 27 -65 85 -141 236 -143 281 -168 356 -140 410 14 25 45 24 81 -2 75 -53 232 -290 360 -541 81 -161 90 -168 209 -168 84 0 99 15 52 55 -56 47 -110 174 -248 579 -30 87 -53 163 -52 167 5 14 118 -44 175 -90 62 -49 128 -139 202 -279 30 -56 61 -104 70 -107 8 -3 22 1 30 10 14 14 14 20 0 59 -27 76 -121 235 -179 304 -76 91 -136 134 -258 186 l-103 43 -60 99 c-56 92 -125 187 -200 277 l-31 37 356 0 c310 0 356 2 356 15 0 13 -48 15 -373 15 l-372 0 -60 45 c-33 25 -92 58 -132 75 -67 28 -80 30 -195 30 -93 0 -131 -4 -156 -17z m223 -82 c103 -51 103 -51 -62 -51 l-153 0 0 24 c0 62 113 76 215 27z m241 -194 c101 -104 193 -221 183 -231 -2 -2 -88 20 -190 49 -196 56 -284 94 -345 147 -40 35 -94 113 -94 135 0 10 37 13 169 13 l169 0 108 -113z m-825 -538 c43 -30 136 -158 187 -256 23 -45 54 -90 68 -101 20 -14 40 -54 76 -153 73 -197 76 -179 -24 -179 l-85 0 -38 58 c-59 89 -124 171 -196 247 l-67 70 -26 117 c-30 136 -32 175 -10 207 14 19 23 22 50 18 19 -3 48 -16 65 -28z m-574 -339 c78 -36 145 -97 178 -163 29 -58 34 -127 10 -127 -31 0 -72 30 -135 96 -60 64 -160 206 -160 226 0 12 30 3 107 -32z m637 -254 c31 -43 56 -82 56 -87 0 -5 -13 -9 -28 -9 -26 0 -31 7 -60 78 -18 43 -32 84 -32 92 0 17 -3 20 64 -74z m510 0 c31 -43 56 -82 56 -87 0 -5 -13 -9 -28 -9 -26 0 -31 7 -60 78 -18 43 -32 84 -32 92 0 17 -3 20 64 -74z m-345 -275 c58 -114 91 -207 91 -253 l0 -32 -31 30 c-29 28 -179 313 -179 341 0 8 13 13 35 13 34 0 36 -2 84 -99z m510 0 c58 -114 91 -207 91 -253 l0 -32 -31 30 c-29 28 -179 313 -179 341 0 8 13 13 35 13 34 0 36 -2 84 -99z"/>
<path d="M768 8219 c-308 -25 -547 -212 -625 -490 -25 -90 -25 -359 1 -479 34 -161 104 -330 196 -470 l50 -76 -16 -79 c-29 -148 -16 -400 23 -463 9 -15 22 -22 36 -20 21 3 22 7 19 113 -2 99 13 314 23 324 3 2 37 -29 76 -69 227 -229 523 -339 833 -310 132 13 204 32 302 80 222 109 313 333 230 570 -55 160 -165 280 -332 361 -145 71 -255 93 -434 86 -304 -12 -519 -119 -645 -319 -17 -27 -33 -48 -37 -48 -18 0 -114 278 -143 415 -21 100 -24 337 -6 415 32 132 136 258 248 300 117 44 179 52 333 47 200 -7 342 -47 479 -134 134 -85 201 -164 312 -366 48 -89 58 -102 80 -100 22 1 39 -29 216 -380 106 -210 212 -411 235 -446 51 -79 94 -101 180 -94 70 7 78 22 40 71 -80 104 -462 791 -462 832 0 7 26 -12 58 -43 97 -92 259 -191 363 -221 92 -27 109 -6 63 74 -65 112 -187 369 -215 451 -37 111 -37 163 2 167 49 6 136 -102 232 -287 57 -109 73 -131 97 -131 10 0 33 -25 55 -62 61 -99 160 -192 247 -233 100 -48 180 -62 253 -46 70 16 139 66 143 105 7 60 -50 76 -83 23 -31 -49 -81 -56 -150 -22 -179 87 -427 474 -385 600 15 44 39 46 101 6 61 -38 156 -166 249 -336 42 -77 90 -150 109 -167 33 -30 37 -30 104 -25 39 3 74 12 78 18 4 8 -4 30 -21 54 -50 72 -128 228 -154 307 -27 78 -34 172 -16 183 33 20 150 -125 240 -296 51 -99 63 -111 98 -102 15 3 22 -2 30 -24 63 -169 89 -249 117 -368 35 -144 52 -175 96 -175 93 0 130 121 69 227 -16 28 -34 54 -40 58 -5 3 -10 11 -10 17 0 7 44 8 136 3 l137 -8 -5 52 c-4 37 -29 101 -96 238 -101 211 -122 267 -122 330 0 39 2 43 24 43 45 0 126 -105 228 -295 43 -81 58 -100 76 -100 20 -1 27 -15 63 -120 113 -329 288 -675 395 -777 62 -59 138 -83 185 -58 28 16 49 63 49 113 0 165 -255 621 -460 822 -53 53 -64 69 -86 140 -49 152 -40 276 22 291 36 9 90 -14 126 -55 39 -42 131 -187 176 -277 34 -67 55 -89 76 -81 10 4 27 -16 53 -61 91 -159 259 -283 383 -285 186 -1 199 179 24 343 -70 65 -142 103 -245 129 -38 10 -75 23 -81 29 -13 13 -24 159 -14 197 11 42 41 65 86 65 113 0 212 -92 313 -290 59 -115 74 -133 103 -126 20 5 30 -11 107 -167 67 -137 94 -181 130 -214 72 -67 161 -80 219 -33 19 15 21 22 12 37 -9 14 -22 17 -67 15 -50 -3 -56 -1 -80 28 -29 34 -43 101 -33 155 4 19 28 83 53 142 61 142 69 222 29 309 -15 32 -43 78 -63 102 l-37 45 30 -7 c71 -17 133 -91 234 -277 57 -105 71 -124 94 -127 47 -6 42 22 -28 162 -49 99 -81 150 -127 200 -90 98 -114 107 -297 119 -84 5 -169 6 -188 3 -45 -9 -98 -56 -117 -105 l-16 -38 -56 53 c-76 72 -143 97 -252 92 -72 -3 -86 -6 -125 -34 -60 -44 -92 -109 -93 -190 0 -35 -2 -64 -5 -64 -3 0 -18 25 -34 56 -46 87 -148 186 -221 213 -107 40 -194 22 -249 -53 -19 -24 -21 -41 -20 -142 l1 -114 -27 49 c-90 163 -215 281 -300 281 -75 0 -140 -81 -140 -175 0 -72 28 -148 111 -298 40 -72 68 -135 65 -143 -7 -19 -58 -40 -112 -46 l-40 -6 -29 77 c-74 200 -232 479 -282 498 -8 3 -23 1 -33 -5 -14 -9 -24 -4 -51 25 -68 71 -145 91 -206 53 -46 -28 -65 -63 -72 -131 l-6 -59 -60 72 c-103 124 -206 167 -280 117 -48 -32 -75 -93 -78 -168 -1 -34 -4 -61 -8 -61 -4 0 -22 24 -39 54 -43 76 -113 151 -163 175 -84 41 -195 21 -228 -41 -50 -93 -20 -223 94 -412 55 -91 60 -103 40 -110 -23 -9 -87 36 -173 124 -81 82 -168 203 -249 347 -56 100 -65 106 -164 116 -62 6 -68 -8 -34 -79 15 -30 26 -54 24 -54 -1 0 -34 31 -72 68 -213 208 -479 304 -777 281z m4515 -336 c-15 -27 -28 -50 -30 -52 -2 -2 -3 12 -3 32 0 36 21 67 45 67 10 0 6 -14 -12 -47z m183 -109 c13 -48 16 -85 11 -151 -8 -118 -28 -273 -36 -273 -3 0 -41 69 -83 153 -76 153 -76 153 -57 176 12 15 19 39 19 67 0 52 19 103 51 135 l22 22 28 -32 c15 -19 35 -62 45 -97z m-549 -244 c78 -36 145 -97 178 -163 29 -58 34 -127 10 -127 -31 0 -72 30 -135 96 -60 64 -160 206 -160 226 0 12 30 3 107 -32z m-462 -340 c45 -69 104 -164 129 -211 76 -141 127 -299 97 -299 -31 0 -162 235 -285 514 -97 217 -88 216 59 -4z m-3065 -5 c203 -52 372 -218 411 -403 54 -263 -150 -464 -471 -465 -119 0 -207 21 -325 77 -155 74 -328 222 -429 369 l-38 55 38 73 c89 168 258 278 476 309 88 12 262 5 338 -15z"/>
<path d="M6580 8066 c-139 -39 -210 -119 -210 -239 0 -68 40 -135 107 -177 68 -43 114 -53 223 -47 117 6 204 32 208 64 4 30 -24 36 -84 18 -107 -32 -202 -13 -250 51 -37 48 -41 99 -12 154 29 56 72 81 151 87 116 9 238 -27 359 -106 192 -125 305 -274 515 -674 196 -376 343 -605 498 -777 48 -53 81 -98 76 -103 -15 -15 -396 -21 -506 -8 -381 45 -719 182 -870 353 -126 145 -150 311 -58 418 48 56 86 73 158 73 114 0 235 -89 298 -220 54 -111 104 -93 78 29 -38 177 -227 293 -437 268 -166 -20 -287 -141 -301 -302 -19 -207 116 -402 366 -528 154 -77 381 -144 591 -174 257 -37 563 -40 738 -6 49 9 53 8 101 -25 56 -37 155 -78 180 -73 9 2 17 13 19 25 2 16 -10 32 -52 63 -31 22 -56 44 -56 48 0 4 33 19 72 32 95 32 220 108 286 173 30 30 67 80 85 117 28 56 32 74 31 140 0 50 -7 92 -21 126 -69 174 -274 365 -503 465 -157 70 -397 119 -586 120 l-99 0 -83 114 c-100 135 -251 299 -341 367 -86 65 -206 123 -305 148 -92 23 -292 26 -366 6z m1310 -731 c266 -40 480 -142 646 -309 90 -90 136 -163 159 -251 19 -74 19 -108 0 -172 -29 -97 -132 -182 -281 -233 -32 -11 -65 -20 -75 -20 -24 0 -123 158 -366 583 -107 188 -204 354 -214 369 -38 53 -25 57 131 33z"/>
<path d="M5560 6345 c-7 -9 -29 -23 -49 -32 -20 -10 -42 -23 -49 -30 -7 -7 -18 -13 -23 -13 -5 0 -9 -7 -9 -15 0 -8 -5 -15 -10 -15 -11 0 -14 -2 -71 -50 -20 -16 -42 -30 -47 -30 -6 0 -16 -8 -21 -19 -6 -10 -22 -22 -36 -25 -14 -4 -25 -11 -25 -16 0 -6 -7 -10 -15 -10 -24 0 -37 -37 -29 -85 3 -25 9 -45 13 -45 3 0 7 -14 7 -32 1 -18 6 -34 12 -36 6 -2 8 -10 6 -17 -3 -8 1 -36 9 -62 15 -48 29 -110 41 -188 2 -11 8 -33 15 -48 6 -16 9 -33 5 -38 -3 -5 -1 -9 5 -9 5 0 13 -29 16 -65 4 -36 10 -65 14 -65 4 0 13 -26 20 -57 7 -32 19 -87 27 -123 8 -36 18 -77 21 -92 3 -16 10 -28 15 -28 6 0 8 -7 4 -15 -7 -20 15 -116 26 -109 4 3 5 -2 2 -10 -3 -8 1 -37 9 -63 17 -54 32 -122 30 -140 0 -7 3 -13 8 -13 5 0 9 -7 9 -15 0 -8 -5 -15 -10 -15 -6 0 -18 -16 -27 -35 -10 -21 -22 -34 -30 -31 -7 3 -13 1 -13 -4 0 -4 -13 -22 -30 -38 -16 -17 -30 -34 -30 -39 0 -5 -9 -16 -20 -26 -12 -10 -18 -23 -14 -29 4 -7 3 -8 -4 -4 -7 4 -12 1 -12 -8 0 -9 -7 -16 -15 -16 -8 0 -15 -9 -15 -20 0 -11 -4 -20 -10 -20 -5 0 -10 -9 -10 -20 0 -11 6 -20 14 -20 7 0 19 -6 25 -13 6 -8 29 -20 51 -27 22 -7 40 -17 40 -22 0 -4 7 -8 15 -8 8 0 15 -5 15 -10 0 -6 11 -8 25 -4 16 4 25 2 25 -6 0 -8 9 -11 24 -8 15 3 27 0 30 -8 5 -14 143 -17 152 -3 3 5 16 9 30 9 14 0 22 4 19 10 -3 6 1 10 10 10 9 0 13 -4 10 -10 -4 -6 2 -7 17 -1 13 5 22 15 20 21 -2 7 3 10 12 7 8 -3 16 -3 18 1 3 8 82 47 111 56 21 7 23 52 2 60 -8 3 -15 11 -15 17 0 6 -12 22 -26 35 -14 14 -22 29 -18 36 4 7 3 8 -5 4 -16 -10 -41 12 -41 35 0 10 -9 23 -20 29 -11 6 -20 15 -20 21 0 6 -7 17 -15 25 -8 9 -15 12 -15 8 0 -4 -12 10 -26 31 -14 21 -21 41 -16 44 5 3 13 30 17 59 4 28 11 52 15 52 5 0 12 29 15 65 4 36 12 65 17 65 6 0 8 9 5 20 -3 11 -1 20 4 20 5 0 9 15 9 34 0 19 5 47 11 63 22 57 61 219 60 251 -1 18 3 31 7 28 4 -2 9 10 10 27 2 18 6 33 11 35 4 1 5 16 3 32 -2 17 0 30 6 30 6 0 14 27 18 60 4 33 10 60 14 60 4 0 10 27 14 60 4 33 11 60 16 60 4 0 12 29 15 65 4 36 11 65 16 65 5 0 6 6 3 14 -3 8 -1 17 5 21 6 3 11 24 11 45 0 21 5 42 10 45 6 3 10 17 10 30 0 16 -7 25 -26 29 -14 4 -35 16 -47 26 -11 11 -27 20 -34 20 -7 0 -13 7 -13 15 0 8 -9 15 -20 15 -10 0 -23 6 -27 13 -4 8 -21 22 -38 33 -16 10 -33 24 -38 31 -4 7 -15 9 -24 6 -12 -5 -15 -2 -10 10 4 10 1 17 -6 17 -7 0 -23 10 -37 21 -44 35 -99 69 -114 69 -7 0 -19 -7 -26 -15z"/>
<path d="M3238 4665 c-15 -14 -30 -25 -34 -25 -3 0 -23 -13 -43 -28 -20 -15 -48 -34 -63 -41 -16 -8 -28 -20 -28 -28 0 -7 -10 -18 -22 -23 -43 -19 -93 -52 -138 -92 -62 -54 -65 -56 -93 -63 -13 -4 -29 -17 -36 -31 -6 -13 -15 -24 -20 -24 -5 0 -16 -6 -23 -13 -7 -7 -26 -19 -42 -27 -59 -30 -66 -35 -66 -47 0 -7 -5 -13 -10 -13 -12 0 -73 -41 -78 -52 -2 -5 -9 -8 -16 -8 -6 0 -33 -20 -60 -45 -27 -25 -54 -45 -60 -45 -6 0 -31 -19 -56 -41 -25 -23 -57 -46 -72 -51 -24 -8 -28 -16 -28 -47 0 -20 6 -45 14 -56 7 -11 17 -44 21 -72 4 -29 11 -55 16 -59 5 -3 9 -14 9 -25 0 -10 3 -19 8 -19 9 0 32 -72 32 -100 0 -11 4 -20 10 -20 5 0 12 -22 16 -50 4 -27 10 -50 14 -50 4 0 11 -21 15 -46 3 -25 17 -66 31 -91 13 -25 24 -53 24 -62 0 -9 6 -28 14 -42 7 -14 16 -43 20 -65 5 -21 11 -43 16 -49 4 -5 11 -28 14 -49 4 -21 13 -45 20 -52 7 -7 16 -35 20 -63 4 -28 10 -53 15 -55 5 -3 12 -26 15 -51 4 -24 11 -47 17 -50 5 -4 9 -15 9 -26 0 -10 5 -19 11 -19 6 0 9 -9 6 -20 -3 -11 -1 -20 4 -20 5 0 9 -17 9 -39 0 -21 6 -44 14 -50 8 -7 17 -30 21 -52 4 -21 10 -41 15 -44 5 -3 11 -23 15 -46 4 -22 13 -53 21 -67 8 -15 14 -37 14 -49 0 -13 4 -23 9 -23 5 0 15 -26 21 -57 6 -32 14 -65 19 -73 5 -9 12 -31 16 -50 4 -19 11 -39 15 -45 4 -5 11 -29 15 -52 4 -24 11 -43 16 -43 5 0 9 -8 9 -18 0 -10 7 -27 15 -38 8 -10 17 -40 21 -66 4 -27 10 -48 14 -48 4 0 10 -20 13 -45 4 -24 11 -53 16 -62 31 -56 91 -248 91 -290 0 -12 4 -24 9 -27 5 -3 12 -22 16 -42 3 -20 13 -43 21 -51 8 -8 14 -25 14 -38 0 -13 4 -26 9 -29 5 -4 12 -24 16 -46 4 -22 11 -42 15 -45 5 -3 12 -30 15 -60 4 -31 11 -58 16 -61 5 -3 9 -13 9 -23 0 -10 6 -24 14 -30 8 -7 18 -31 21 -54 4 -23 12 -47 17 -54 5 -7 7 -17 4 -22 -4 -5 -2 -12 4 -16 5 -3 10 -17 10 -29 0 -13 7 -37 15 -52 8 -16 15 -41 15 -55 0 -15 6 -32 14 -38 8 -7 17 -30 21 -52 4 -21 10 -39 15 -39 4 0 11 -22 15 -50 4 -27 11 -52 15 -55 5 -3 11 -24 15 -47 4 -23 14 -48 21 -56 8 -7 14 -24 14 -38 0 -13 4 -24 9 -24 5 0 11 -22 15 -50 4 -27 10 -52 15 -54 5 -3 11 -23 15 -44 3 -22 13 -52 21 -68 8 -16 15 -37 15 -47 0 -50 -121 -47 2096 -45 2055 3 2067 3 2078 23 6 11 14 22 17 25 3 3 9 26 13 52 4 26 11 50 15 53 5 2 12 25 15 49 4 24 13 50 21 56 8 7 18 34 21 61 4 27 10 49 14 49 4 0 10 22 14 50 4 27 10 52 15 54 5 3 12 26 15 51 4 24 11 47 17 50 5 4 9 14 9 24 0 10 7 24 15 31 8 7 18 34 21 61 4 27 10 49 14 49 4 0 10 21 14 46 3 26 10 52 15 58 4 6 14 35 21 63 6 29 16 53 21 53 5 0 9 9 9 19 0 11 5 23 10 26 6 4 8 15 5 25 -3 10 -2 21 4 24 5 3 12 29 16 56 4 27 11 52 15 55 5 3 11 23 15 45 4 22 17 60 30 84 12 23 26 58 30 77 4 19 11 39 15 44 4 6 11 30 14 55 4 25 11 54 16 65 17 41 23 60 21 71 0 6 6 17 14 24 8 7 15 22 15 34 0 12 4 26 9 32 5 5 14 36 20 69 6 32 16 64 21 69 6 6 10 20 10 33 0 13 9 40 20 60 11 21 20 45 20 55 0 9 4 19 9 23 6 3 13 26 17 50 3 25 10 48 15 51 5 2 11 27 15 54 4 28 10 50 14 50 4 0 13 27 20 60 7 33 17 60 21 60 5 0 9 9 9 19 0 11 4 22 9 25 5 3 12 26 15 51 4 24 11 47 16 50 5 3 12 28 16 55 4 33 11 50 20 50 9 0 14 11 14 28 0 15 7 40 16 57 8 16 18 48 21 72 3 24 9 43 13 43 5 0 11 22 15 49 4 28 13 55 21 62 8 6 14 20 14 30 0 10 4 20 9 23 5 3 12 26 15 51 4 24 11 47 15 50 5 2 11 27 15 54 4 28 11 53 16 56 6 3 10 16 10 28 0 13 9 40 20 62 11 21 23 54 26 72 3 18 10 36 15 39 5 3 9 20 9 37 0 18 6 41 14 52 7 11 16 40 20 65 4 24 12 50 18 57 6 7 8 13 4 13 -3 0 3 16 14 36 12 20 23 56 27 80 3 24 9 44 13 44 4 0 11 16 14 35 4 19 13 47 21 62 8 15 15 47 15 69 0 37 -3 43 -26 48 -15 4 -38 20 -53 37 -14 16 -31 29 -37 29 -7 0 -14 3 -16 8 -5 11 -66 52 -77 52 -5 0 -13 9 -16 21 -4 11 -21 27 -38 36 -61 28 -87 44 -87 54 0 5 -7 9 -15 9 -8 0 -15 7 -15 15 0 8 -5 15 -10 15 -12 0 -73 41 -78 53 -2 4 -8 7 -14 7 -6 0 -29 16 -52 36 -57 49 -60 51 -87 59 -13 4 -37 21 -53 38 -15 17 -45 39 -65 50 -20 11 -40 26 -44 33 -4 8 -15 14 -22 14 -8 0 -15 7 -15 15 0 8 -7 15 -15 15 -8 0 -15 4 -15 9 0 5 -11 12 -25 15 -14 4 -25 11 -25 16 0 6 -7 10 -15 10 -9 0 -18 7 -21 15 -4 8 -12 15 -19 15 -8 0 -16 9 -20 19 -11 35 -89 35 -112 -1 -8 -13 -48 -37 -130 -79 -24 -12 -43 -26 -43 -33 0 -12 -6 -16 -98 -61 -34 -16 -62 -35 -62 -41 0 -7 -8 -15 -17 -18 -32 -11 -111 -60 -140 -86 -30 -26 -59 -44 -135 -82 -26 -12 -48 -29 -48 -35 0 -7 -7 -13 -15 -13 -7 0 -18 -6 -22 -13 -9 -15 -92 -57 -111 -57 -7 0 -12 -7 -12 -15 0 -8 -7 -15 -15 -15 -8 0 -15 -4 -15 -10 0 -5 -24 -21 -54 -35 -29 -14 -67 -38 -84 -55 -17 -16 -46 -36 -64 -45 -46 -22 -68 -36 -113 -71 -22 -17 -61 -40 -86 -52 -25 -12 -62 -37 -83 -55 -21 -19 -62 -45 -92 -58 -53 -24 -54 -25 -54 -66 0 -24 5 -43 10 -43 14 0 12 -27 -2 -33 -9 -4 -10 -8 -2 -14 6 -4 13 -55 17 -116 3 -60 10 -114 16 -120 6 -6 11 -47 11 -93 0 -77 2 -84 26 -103 15 -12 32 -21 38 -21 21 0 91 -37 110 -59 11 -12 27 -21 38 -21 11 0 18 -7 18 -19 0 -11 5 -23 11 -26 6 -4 9 -27 8 -51 -2 -24 0 -46 4 -50 4 -4 7 -31 7 -60 0 -29 5 -56 10 -59 6 -3 7 -17 4 -30 -7 -28 13 -119 34 -152 11 -18 26 -22 108 -28 52 -4 94 -11 94 -16 0 -5 14 -9 31 -9 17 0 45 -6 62 -14 18 -8 67 -20 110 -26 43 -7 80 -17 83 -21 3 -5 16 -9 29 -9 13 0 43 -15 67 -33 24 -18 51 -36 61 -40 28 -11 20 -49 -19 -83 -29 -26 -48 -34 -97 -39 -34 -4 -67 -11 -73 -16 -6 -5 -56 -12 -112 -15 -56 -4 -102 -11 -102 -16 0 -4 -28 -8 -62 -8 -40 -1 -70 -6 -82 -15 -11 -8 -39 -15 -62 -15 -33 0 -45 -5 -57 -24 -9 -13 -14 -35 -11 -49 2 -14 0 -29 -6 -32 -5 -3 -10 -19 -10 -36 0 -16 -4 -29 -9 -29 -5 0 -7 -9 -4 -20 3 -11 0 -26 -6 -33 -5 -7 -13 -39 -17 -70 -4 -31 -13 -62 -20 -68 -8 -6 -14 -29 -14 -50 0 -22 -4 -39 -9 -39 -5 0 -7 -9 -4 -20 3 -11 0 -20 -6 -20 -6 0 -11 -13 -11 -30 0 -16 -4 -30 -9 -30 -5 0 -12 -29 -16 -65 -3 -36 -10 -67 -15 -70 -5 -3 -12 -30 -15 -60 -4 -30 -13 -60 -21 -66 -8 -6 -14 -20 -14 -30 0 -11 -4 -19 -9 -19 -6 0 -13 -20 -17 -45 -3 -25 -10 -45 -15 -45 -5 0 -8 -4 -6 -9 1 -5 -14 -29 -34 -53 -19 -23 -38 -50 -42 -60 -6 -16 -34 -35 -89 -60 -16 -7 -28 -17 -28 -23 0 -5 -19 -18 -43 -28 -23 -11 -55 -25 -72 -33 -16 -8 -56 -17 -87 -20 -39 -5 -58 -11 -58 -20 0 -9 -11 -14 -28 -14 -15 0 -34 -6 -41 -13 -18 -18 -622 -18 -629 1 -2 6 -17 12 -33 12 -17 0 -29 5 -29 13 0 9 -27 17 -78 24 -71 11 -142 37 -150 56 -2 4 -10 7 -18 7 -8 0 -14 6 -14 14 0 8 -12 17 -26 20 -25 7 -114 86 -114 101 0 4 -16 25 -35 48 -19 22 -35 48 -35 57 0 8 -6 25 -14 36 -8 11 -17 45 -21 77 -4 31 -11 57 -16 57 -5 0 -9 14 -9 30 0 18 -6 33 -15 36 -9 4 -17 27 -21 65 -4 32 -10 59 -14 59 -5 0 -11 27 -15 60 -4 33 -11 60 -15 60 -4 0 -11 27 -15 59 -4 34 -12 62 -20 64 -7 3 -16 30 -19 61 -4 31 -11 58 -16 61 -4 2 -11 30 -15 61 -4 32 -11 64 -15 73 -5 9 -12 32 -15 52 -7 44 -19 49 -123 49 -40 0 -71 4 -68 9 3 4 -49 11 -116 15 -67 4 -125 11 -128 15 -3 5 -40 12 -82 16 -43 3 -78 10 -78 13 0 7 -31 26 -62 38 -28 10 -21 74 8 74 8 0 25 13 40 29 15 17 41 32 61 36 20 3 43 11 52 16 9 5 52 15 96 22 44 8 79 18 78 23 -1 6 21 12 50 13 28 1 54 6 57 10 3 5 48 12 100 16 52 4 101 11 108 17 6 6 12 28 12 49 0 21 5 41 10 44 6 4 10 25 10 48 -1 65 11 167 21 173 5 3 9 22 9 43 0 64 11 101 30 101 9 0 27 11 40 25 13 14 38 28 57 31 18 3 33 10 33 14 0 4 12 11 27 15 32 8 52 32 53 63 0 12 5 22 10 22 6 0 10 43 10 110 0 61 4 110 9 110 5 0 7 40 5 90 -2 51 1 92 6 95 6 3 10 26 10 50 0 40 -2 44 -30 50 -16 4 -30 10 -30 15 0 5 -13 11 -29 15 -16 3 -32 13 -35 21 -3 8 -12 14 -21 14 -8 0 -15 7 -15 15 0 8 -7 15 -15 15 -8 0 -15 4 -15 9 0 5 -12 12 -27 16 -15 3 -30 10 -33 14 -3 4 -26 20 -52 35 -27 15 -48 31 -48 35 0 4 -34 24 -75 45 -41 21 -75 44 -75 52 0 8 -7 14 -15 14 -8 0 -15 4 -15 9 0 5 -13 12 -30 16 -16 4 -30 11 -30 16 0 5 -7 9 -15 9 -9 0 -18 7 -21 15 -4 8 -12 15 -20 15 -8 0 -14 6 -14 13 0 8 -17 19 -39 25 -21 7 -44 19 -51 27 -7 8 -18 15 -24 15 -6 0 -26 14 -44 30 -18 17 -40 30 -48 30 -8 0 -14 4 -14 9 0 5 -11 12 -25 15 -14 4 -25 11 -25 16 0 6 -7 10 -15 10 -7 0 -18 6 -22 13 -11 16 -69 57 -83 57 -5 0 -10 4 -10 9 0 5 -14 12 -31 16 -17 4 -33 13 -36 21 -3 8 -11 14 -19 14 -8 0 -14 6 -14 14 0 8 -13 17 -30 21 -16 4 -30 10 -30 15 0 5 -13 11 -29 15 -16 3 -32 13 -35 21 -3 8 -10 14 -16 14 -6 0 -21 11 -33 24 -13 14 -35 28 -50 31 -15 4 -27 11 -27 15 0 5 -10 12 -22 16 -13 4 -25 10 -28 14 -9 12 -84 60 -95 60 -6 0 -22 -11 -37 -25z"/>
<path d="M5347 2333 c-4 -3 -34 -5 -67 -4 -36 1 -60 -3 -60 -9 0 -5 -7 -10 -15 -10 -8 0 -15 6 -15 13 0 9 -2 9 -8 0 -7 -11 -72 -24 -222 -44 -41 -5 -82 -13 -91 -18 -8 -5 -46 -12 -82 -16 -37 -4 -67 -11 -67 -16 0 -5 -11 -9 -25 -9 -54 0 -126 -56 -96 -74 4 -3 6 -16 4 -30 -3 -13 0 -27 6 -30 6 -4 11 -18 11 -32 0 -13 4 -24 9 -24 5 0 7 -9 4 -20 -3 -11 0 -20 6 -20 6 0 11 -13 11 -30 0 -16 4 -30 10 -30 5 0 7 -7 4 -15 -4 -8 -1 -21 5 -29 7 -8 14 -37 18 -65 5 -43 9 -51 27 -52 79 -6 97 -5 102 2 3 5 20 9 39 9 18 0 36 6 38 13 4 9 7 9 15 -1 7 -10 11 -10 20 1 14 17 219 31 395 28 70 -2 107 1 107 8 0 15 326 15 336 0 4 -7 44 -10 113 -8 125 3 360 -11 366 -22 3 -4 14 -5 25 -2 11 3 20 0 20 -6 0 -6 15 -11 34 -11 19 0 37 -4 40 -8 4 -7 47 -8 107 -3 12 1 18 15 23 51 4 28 10 50 15 50 5 0 11 19 15 42 4 23 11 47 15 53 5 5 11 32 15 59 3 27 10 54 14 60 5 6 9 20 11 31 7 68 6 70 -16 73 -12 2 -27 10 -33 18 -7 8 -25 14 -41 14 -16 0 -29 4 -29 9 0 5 -29 13 -65 16 -36 4 -65 11 -65 15 0 4 -42 11 -92 15 -51 4 -97 11 -103 15 -5 4 -34 10 -64 13 -29 4 -59 11 -66 17 -10 8 -14 7 -17 -6 -3 -17 -4 -17 -20 -1 -11 12 -35 18 -70 19 -107 3 -364 -2 -386 -7 -15 -4 -21 -2 -17 5 7 11 -137 15 -148 3z"/>
</g>


</svg>